HIERARCHY
ROOT SpineBase
{
  OFFSET 0.000000 0.000000 0.000000
  CHANNELS 6 Xposition Yposition Zposition Zrotation Xrotation Yrotation
  JOINT SpineMid
  {
    OFFSET -0.000000 28.997081 0.000000
    CHANNELS 3 Zrotation Xrotation Yrotation
    JOINT SpineShoulder
    {
      OFFSET -0.068410 21.554859 -0.968488
      CHANNELS 3 Zrotation Xrotation Yrotation
      JOINT Neck
      {
        OFFSET -0.012280 7.139663 -0.665566
        CHANNELS 3 Zrotation Xrotation Yrotation
        JOINT Head
        {
          OFFSET -1.939725 12.100039 1.900197
          CHANNELS 3 Zrotation Xrotation Yrotation
          End Site
          {
            OFFSET 0 0 0
          }
        }
      }
      JOINT ShoulderLeft
      {
        OFFSET -10.083933 -3.033547 10.837896
        CHANNELS 3 Zrotation Xrotation Yrotation
        JOINT ElbowLeft
        {
          OFFSET -2.556501 -29.445210 5.977834
          CHANNELS 3 Zrotation Xrotation Yrotation
          JOINT WristLeft
          {
            OFFSET -0.222683 -24.749330 -1.860390
            CHANNELS 3 Zrotation Xrotation Yrotation
            JOINT HandLeft
            {
              OFFSET -1.208102 -3.872201 -1.713067
              CHANNELS 3 Zrotation Xrotation Yrotation
              JOINT HandTipLeft
              {
                OFFSET 0.036704 -4.680445 -3.616048
                CHANNELS 3 Zrotation Xrotation Yrotation
                End Site
                {
                  OFFSET 0 0 0
                }
              }
              JOINT ThumbLeft
              {
                OFFSET -0.869071 1.002984 -0.172820
                CHANNELS 3 Zrotation Xrotation Yrotation
                End Site
                {
                  OFFSET 0 0 0
                }
              }
            }
          }
        }
      }
      JOINT ShoulderRight
      {
        OFFSET 6.120295 -3.806792 -13.348408
        CHANNELS 3 Zrotation Xrotation Yrotation
        JOINT ElbowRight
        {
          OFFSET 4.026593 -23.606744 -4.403559
          CHANNELS 3 Zrotation Xrotation Yrotation
          JOINT WristRight
          {
            OFFSET -5.573075 -21.284683 -3.738833
            CHANNELS 3 Zrotation Xrotation Yrotation
            JOINT HandRight
            {
              OFFSET -0.897252 -5.381608 0.200036
              CHANNELS 3 Zrotation Xrotation Yrotation
              JOINT HandTipRight
              {
                OFFSET -1.107564 -6.022603 0.681926
                CHANNELS 3 Zrotation Xrotation Yrotation
                End Site
                {
                  OFFSET 0 0 0
                }
              }
              JOINT ThumbRight
              {
                OFFSET -4.586593 -2.997872 -0.108968
                CHANNELS 3 Zrotation Xrotation Yrotation
                End Site
                {
                  OFFSET 0 0 0
                }
              }
            }
          }
        }
      }
    }
  }
  JOINT HipLeft
  {
    OFFSET -4.241179 0.926150 1.052898
    CHANNELS 3 Zrotation Xrotation Yrotation
    JOINT KneeLeft
    {
      OFFSET 5.642171 -29.727851 8.043276
      CHANNELS 3 Zrotation Xrotation Yrotation
      JOINT AnkleLeft
      {
        OFFSET 8.985227 -30.799286 5.189179
        CHANNELS 3 Zrotation Xrotation Yrotation
        JOINT FootLeft
        {
          OFFSET -8.952536 -2.959142 -10.582110
          CHANNELS 3 Zrotation Xrotation Yrotation
          End Site
          {
            OFFSET 0 0 0
          }
        }
      }
    }
  }
  JOINT HipRight
  {
    OFFSET 3.618141 0.635102 -7.834219
    CHANNELS 3 Zrotation Xrotation Yrotation
    JOINT KneeRight
    {
      OFFSET 9.918676 -31.367073 3.334319
      CHANNELS 3 Zrotation Xrotation Yrotation
      JOINT AnkleRight
      {
        OFFSET 5.687048 -29.998372 4.950392
        CHANNELS 3 Zrotation Xrotation Yrotation
        JOINT FootRight
        {
          OFFSET -3.760754 -7.231849 4.235981
          CHANNELS 3 Zrotation Xrotation Yrotation
          End Site
          {
            OFFSET 0 0 0
          }
        }
      }
    }
  }
}
MOTION
Frames: 11
Frame Time: 0.033333
26.720555 69.098391 339.015278 6.539020 -1.000125 52.524889 0.474909 0.234549 -52.202193 0.256764 0.128565 0.336917 -15.712729 6.516729 2.289516 0.000000 0.000000 0.000000 -13.337999 -17.578163 -1.256615 -143.847490 27.757888 117.032630 11.631315 -67.818957 -13.813794 -7.192338 -20.603096 17.724810 0.000000 0.000000 0.000000 0.000000 0.000000 0.000000 -83.456118 30.578377 47.754177 4.753607 -17.826146 -24.475404 -27.856542 12.165441 -10.968883 18.996002 17.734528 8.388166 0.000000 0.000000 0.000000 0.000000 0.000000 0.000000 -2.430494 8.107988 -52.385589 6.068237 -5.977600 -0.025200 18.741045 -21.596500 5.804140 0.000000 0.000000 0.000000 -1.860895 8.028707 -51.801262 5.830000 -7.672629 -0.386474 0.337929 65.989286 -51.621301 0.000000 0.000000 0.000000
26.540496 69.589138 339.142308 6.573781 -1.238026 53.169188 0.578707 0.169384 -52.830728 0.336583 0.152118 0.348914 -15.494471 6.661141 2.201637 0.000000 0.000000 0.000000 -15.012524 -16.455502 -1.758709 -143.035961 28.831302 118.298599 1.440469 -69.781345 -23.312655 -3.905843 -17.708565 18.217529 0.000000 0.000000 0.000000 0.000000 0.000000 0.000000 -85.597960 27.134344 46.340296 16.250862 -10.184359 -18.227744 -27.082925 7.194895 -14.747085 13.897501 13.017052 4.913466 0.000000 0.000000 0.000000 0.000000 0.000000 0.000000 -1.851889 8.182703 -52.954518 5.636340 -5.746030 -0.053843 17.029265 -20.361700 4.359812 0.000000 0.000000 0.000000 -1.566457 7.975882 -52.462396 5.544917 -7.419592 -0.385700 2.178654 67.098913 -54.336057 0.000000 0.000000 0.000000
26.553086 69.881458 339.214460 6.870100 -1.339800 52.395365 0.536947 0.222013 -52.038177 0.349849 0.172936 0.359681 -15.455055 6.645674 2.109209 0.000000 0.000000 0.000000 -16.259605 -15.531521 -2.101545 -142.500933 29.644583 119.178867 -1.759504 -70.852593 -26.352776 -1.434884 -14.677125 18.732270 0.000000 0.000000 0.000000 0.000000 0.000000 0.000000 -87.089867 23.861208 44.367250 22.826268 -0.332301 -14.262406 -23.344690 -3.129159 -19.525393 6.788271 14.774721 3.455384 0.000000 0.000000 0.000000 0.000000 0.000000 0.000000 -2.117892 7.495711 -52.063274 4.624176 -4.538655 -0.111511 12.805609 -16.480269 1.616916 0.000000 0.000000 0.000000 -1.777076 8.290308 -51.661626 5.445362 -7.259592 -0.392779 -1.800444 65.315858 -50.108923 0.000000 0.000000 0.000000
26.675038 70.024844 339.226974 7.289710 -1.441063 50.800107 0.427823 0.357921 -50.420437 0.308390 0.081390 0.374128 -15.069448 6.806011 1.985228 0.000000 0.000000 0.000000 -16.730640 -14.931343 -2.162514 -142.610363 29.978887 119.829141 -15.572855 -72.457203 -39.732218 7.451706 -6.504731 18.589482 0.000000 0.000000 0.000000 0.000000 0.000000 0.000000 -86.749114 20.936829 41.346453 21.483376 2.680621 -13.176071 -15.589632 -4.463342 -16.699218 -0.612289 14.279629 0.896777 0.000000 0.000000 0.000000 0.000000 0.000000 0.000000 -3.512400 6.551503 -50.507211 4.037469 -2.546397 0.026927 7.374698 -10.545941 -1.011311 0.000000 0.000000 0.000000 -2.125481 8.806048 -49.993239 5.330192 -7.260830 -0.445254 3.277277 64.397470 -51.122632 0.000000 0.000000 0.000000
26.939035 69.926789 339.206212 7.787134 -1.458680 48.149890 0.261646 0.501678 -47.747018 0.214976 0.004183 0.385861 -14.869114 6.868698 1.883826 0.000000 0.000000 0.000000 -16.453105 -14.947515 -1.996418 -143.351103 29.848366 120.272849 -7.456213 -69.742408 -31.425195 12.901672 -6.826510 17.643052 0.000000 0.000000 0.000000 0.000000 0.000000 0.000000 -87.488922 19.003929 39.974992 21.434709 -1.098250 -13.320191 -16.215682 4.542194 -12.668371 -0.521924 11.145115 -0.846446 0.000000 0.000000 0.000000 0.000000 0.000000 0.000000 -4.135385 6.762558 -47.806170 3.783520 -2.232339 0.059336 2.085295 -4.026775 -2.884675 0.000000 0.000000 0.000000 -2.765454 9.356308 -47.233853 5.156491 -7.293779 -0.530057 4.861841 61.530188 -47.705075 0.000000 0.000000 0.000000
27.265532 69.629514 339.180090 8.266526 -1.472385 44.652181 0.071482 0.609030 -44.224627 0.076683 -0.071024 0.393810 -14.791745 6.888193 1.815534 0.000000 0.000000 0.000000 -15.114699 -15.756698 -1.485307 -145.270045 29.278443 121.244087 -0.890092 -71.801324 -25.585079 24.900730 2.095681 14.179512 0.000000 0.000000 0.000000 0.000000 0.000000 0.000000 -88.144759 18.306892 39.745642 20.444188 -1.439942 -13.451829 -12.434421 6.275714 -10.776303 -6.517024 7.466352 -5.371943 0.000000 0.000000 0.000000 0.000000 0.000000 0.000000 -6.927366 5.721113 -44.633823 4.298497 0.318855 0.552013 0.549659 -2.157040 -3.246252 0.000000 0.000000 0.000000 -3.502898 9.878595 -43.583644 4.918954 -7.452397 -0.659471 8.530301 58.618577 -44.844412 0.000000 0.000000 0.000000
27.631412 69.198884 339.131291 8.693741 -1.435370 41.066027 -0.080639 0.663372 -40.618721 -0.030544 -0.114773 0.402834 -15.183216 6.644923 1.787765 0.000000 0.000000 0.000000 -12.898447 -16.969450 -0.660101 -148.631495 27.772407 122.727397 12.180568 -76.927128 -14.188808 29.832055 7.557792 9.896384 0.000000 0.000000 0.000000 0.000000 0.000000 0.000000 -88.473626 18.669374 40.203192 18.327086 -2.561408 -14.250646 -9.960510 10.532338 -8.366841 -10.383993 2.380682 -10.698456 0.000000 0.000000 0.000000 0.000000 0.000000 0.000000 -9.053727 4.862086 -41.326515 4.781564 1.749899 0.848712 0.621381 -1.902314 -3.677753 0.000000 0.000000 0.000000 -4.329460 10.229048 -39.848521 4.626557 -7.553088 -0.792022 11.914657 55.550207 -41.454753 0.000000 0.000000 0.000000
28.033644 68.460808 339.084291 9.035224 -1.387940 34.052764 -0.284721 0.688044 -33.590996 -0.190183 -0.133004 0.401170 -14.960528 6.409029 1.667268 0.000000 0.000000 0.000000 -8.865595 -19.321901 0.879252 -154.602435 25.982391 126.923835 -40.208069 -85.750860 -66.752079 37.594251 15.298968 1.664150 0.000000 0.000000 0.000000 0.000000 0.000000 0.000000 -88.056733 19.656863 40.804256 15.823413 -3.465868 -15.228341 -9.136535 13.782467 -6.824108 -12.996578 -0.715507 -14.661399 0.000000 0.000000 0.000000 0.000000 0.000000 0.000000 -10.606640 2.032430 -34.599242 3.733843 3.524731 0.886937 1.652840 -2.263936 -3.618180 0.000000 0.000000 0.000000 -5.319017 10.893410 -32.445454 4.310159 -8.648243 -1.170818 9.831804 51.057762 -34.948720 0.000000 0.000000 0.000000
28.304501 67.854583 339.054456 9.160056 -1.332844 29.085067 -0.352930 0.655889 -28.620320 -0.335483 -0.111005 0.392898 -14.818778 5.919884 1.538704 0.000000 0.000000 0.000000 -9.503825 -19.140348 0.623751 -154.531563 25.472161 127.372996 149.380941 -86.700721 120.953605 27.580853 19.447667 3.829307 0.000000 0.000000 0.000000 0.000000 0.000000 0.000000 -85.594148 21.637279 40.833793 10.584486 -3.359728 -16.591190 -7.246688 15.968612 -5.569067 -14.010254 -5.061573 -18.396048 0.000000 0.000000 0.000000 0.000000 0.000000 0.000000 -11.574453 -0.222445 -29.990977 3.344514 4.837863 0.999937 2.013847 -2.131838 -3.412576 0.000000 0.000000 0.000000 -5.887167 11.099873 -27.209639 3.804228 -9.291028 -1.475724 11.549843 40.665410 -22.715759 0.000000 0.000000 0.000000
28.383252 67.458371 339.049214 9.016820 -1.340985 26.957385 -0.340622 0.637012 -26.499461 -0.467537 -0.069964 0.373393 -14.544862 5.627674 1.489332 0.000000 0.000000 0.000000 -14.005627 -16.026229 -1.134130 -144.543424 27.894307 117.039083 86.091690 -60.516191 51.727920 -2.415176 8.959133 16.378629 0.000000 0.000000 0.000000 0.000000 0.000000 0.000000 -81.661752 24.411592 40.616776 5.096314 -3.684487 -18.170478 -9.138294 17.787911 -5.112669 -8.258459 -7.915324 -16.800696 0.000000 0.000000 0.000000 0.000000 0.000000 0.000000 -11.559139 -1.479129 -28.020928 2.897809 5.398317 0.995602 3.244694 -3.344038 -2.753895 0.000000 0.000000 0.000000 -5.703360 11.044230 -24.970559 3.264329 -9.410807 -1.646935 16.631384 35.253481 -16.221701 0.000000 0.000000 0.000000
28.250500 67.477375 339.092782 8.570094 -1.420071 28.296826 -0.207361 0.611986 -27.855433 -0.579940 0.011067 0.342852 -13.736828 5.534467 1.427497 0.000000 0.000000 0.000000 -18.035666 -11.453111 -2.551501 -129.365282 32.527288 100.640576 81.934266 -35.877660 40.795066 -22.089008 -1.597731 19.445603 0.000000 0.000000 0.000000 0.000000 0.000000 0.000000 -76.100783 27.311148 39.404531 -0.129206 -3.970816 -19.406257 -12.482329 18.578357 -5.254051 -1.418469 -9.142734 -13.366100 0.000000 0.000000 0.000000 0.000000 0.000000 0.000000 -10.821104 -1.114797 -29.257290 2.712150 4.925756 0.878501 5.549044 -6.211790 -1.525486 0.000000 0.000000 0.000000 -4.353420 10.731836 -26.355251 2.353882 -9.282686 -1.799459 17.895681 36.652215 -17.667669 0.000000 0.000000 0.000000
